<svg width="28" height="28" viewBox="0 0 28 28" fill="none" xmlns="http://www.w3.org/2000/svg">
    <path d="M14 7.12695C10.2044 7.12704 7.12704 10.2044 7.12695 14C7.12704 17.7956 10.2044 20.873 14 20.873C17.7956 20.873 20.873 17.7956 20.873 14H28C27.9999 21.7319 21.7319 27.9999 14 28C6.26814 27.9999 8.65875e-05 21.7319 0 14C8.63279e-05 6.26814 6.26814 8.63335e-05 14 0V7.12695ZM22.2168 0.146484C22.2356 0.0982823 22.3062 0.0996182 22.3232 0.148438C22.513 0.690522 23.2194 2.58177 24.1426 3.54004C25.1392 4.57437 27.1942 5.35767 27.7383 5.55273C27.7854 5.56973 27.7879 5.63691 27.7422 5.65723C27.2166 5.88956 25.2409 6.79912 24.2979 7.74219C23.3579 8.68229 22.5369 10.5614 22.3252 11.0703C22.306 11.1162 22.2401 11.1156 22.2217 11.0693C22.0183 10.559 21.2303 8.68171 20.291 7.74219C19.3439 6.79511 17.3229 5.88183 16.7988 5.6543C16.7535 5.63461 16.7548 5.5689 16.8008 5.55078C17.3247 5.34432 19.324 4.51581 20.291 3.54004C21.2194 2.60301 22.0055 0.689321 22.2168 0.146484Z" fill="#22C55E"/>
</svg>
