<svg width="103" height="15" viewBox="0 0 103 15" fill="none" xmlns="http://www.w3.org/2000/svg">
    <path d="M3.0207 11.9233V2.28667H-0.00096347V5.73476e-06H8.49237V2.28667H5.4707V11.9233H3.0207ZM13.631 12.0867C12.8361 12.0867 12.1447 11.9397 11.5567 11.6457C10.9687 11.3408 10.5113 10.9216 10.1847 10.388C9.86888 9.84356 9.71099 9.21201 9.71099 8.49334V6.37001C9.71099 5.65134 9.86888 5.02523 10.1847 4.49167C10.5113 3.94723 10.9687 3.52801 11.5567 3.23401C12.1447 2.92912 12.8361 2.77667 13.631 2.77667C14.4368 2.77667 15.1282 2.92912 15.7053 3.23401C16.2933 3.52801 16.7452 3.94723 17.061 4.49167C17.3877 5.02523 17.551 5.65134 17.551 6.37001V8.49334C17.551 9.21201 17.3877 9.84356 17.061 10.388C16.7452 10.9216 16.2933 11.3408 15.7053 11.6457C15.1282 11.9397 14.4368 12.0867 13.631 12.0867ZM13.631 9.96334C14.1101 9.96334 14.4749 9.83812 14.7253 9.58767C14.9758 9.32634 15.101 8.96156 15.101 8.49334V6.37001C15.101 5.8909 14.9758 5.52612 14.7253 5.27567C14.4749 5.02523 14.1101 4.90001 13.631 4.90001C13.1628 4.90001 12.798 5.02523 12.5367 5.27567C12.2862 5.52612 12.161 5.8909 12.161 6.37001V8.49334C12.161 8.96156 12.2862 9.32634 12.5367 9.58767C12.798 9.83812 13.1628 9.96334 13.631 9.96334ZM19.2433 11.9233V5.73476e-06H21.6933V6.33734H22.9019L24.7803 2.94001H27.5079L25.0089 7.33367L27.5569 11.9233H24.7803L22.8856 8.39534H21.6933V11.9233H19.2433ZM32.4179 12.0867C31.623 12.0867 30.9261 11.9397 30.3272 11.6457C29.7392 11.3408 29.2819 10.9216 28.9552 10.388C28.6395 9.84356 28.4816 9.21201 28.4816 8.49334V6.37001C28.4816 5.65134 28.6395 5.02523 28.9552 4.49167C29.2819 3.94723 29.7392 3.52801 30.3272 3.23401C30.9261 2.92912 31.623 2.77667 32.4179 2.77667C33.2128 2.77667 33.8988 2.92912 34.4759 3.23401C35.0639 3.52801 35.5158 3.94723 35.8316 4.49167C36.1582 5.02523 36.3216 5.65134 36.3216 6.37001V8.00334H30.8172V8.49334C30.8172 9.05956 30.9533 9.48967 31.2256 9.78367C31.4978 10.0668 31.9061 10.2083 32.4506 10.2083C32.8317 10.2083 33.1366 10.143 33.3652 10.0123C33.6048 9.88167 33.7627 9.70201 33.8389 9.47334H36.2399C36.0439 10.2573 35.5975 10.8889 34.9006 11.368C34.2146 11.8471 33.387 12.0867 32.4179 12.0867ZM33.9859 6.74567V6.33734C33.9859 5.78201 33.8552 5.35734 33.5939 5.06334C33.3435 4.76934 32.9515 4.62234 32.4179 4.62234C31.8843 4.62234 31.4815 4.77478 31.2092 5.07967C30.9479 5.38456 30.8172 5.81467 30.8172 6.37001V6.61501L34.1492 6.58234L33.9859 6.74567ZM37.9648 11.9233V2.94001H40.3332V4.65501H41.0518L40.3332 5.22667C40.3332 4.46445 40.551 3.86556 40.9865 3.43001C41.4221 2.99445 42.0101 2.77667 42.7505 2.77667C43.6216 2.77667 44.3185 3.08156 44.8412 3.69134C45.3747 4.30112 45.6415 5.11234 45.6415 6.12501V11.9233H43.1915V6.37001C43.1915 5.90178 43.0663 5.54245 42.8158 5.29201C42.5763 5.03067 42.2333 4.90001 41.7868 4.90001C41.3513 4.90001 41.0137 5.03067 40.7742 5.29201C40.5346 5.54245 40.4148 5.90178 40.4148 6.37001V11.9233H37.9648ZM49.6368 11.9233L46.6805 5.73476e-06H49.2121L50.8618 7.52967C50.9162 7.79101 50.9816 8.12312 51.0578 8.52601C51.1449 8.9289 51.2102 9.2719 51.2538 9.55501C51.2974 9.2719 51.3518 8.9289 51.4171 8.52601C51.4825 8.12312 51.5424 7.78556 51.5968 7.51334L53.1975 5.73476e-06H55.6638L52.7401 11.9233H49.6368ZM59.3978 12.0867C58.494 12.0867 57.7753 11.8417 57.2418 11.3517C56.7191 10.8617 56.4578 10.1975 56.4578 9.35901C56.4578 8.45523 56.7681 7.76378 57.3888 7.28467C58.0203 6.79467 58.9241 6.54967 60.1001 6.54967H61.9621V5.88001C61.9621 5.53156 61.8369 5.25389 61.5864 5.04701C61.3469 4.84012 61.0202 4.73667 60.6064 4.73667C60.2253 4.73667 59.9095 4.82378 59.6591 4.99801C59.4086 5.17223 59.2562 5.41178 59.2018 5.71667H56.8334C56.9314 4.81289 57.3234 4.09967 58.0094 3.57701C58.7063 3.04345 59.5992 2.77667 60.6881 2.77667C61.8314 2.77667 62.7352 3.05978 63.3994 3.62601C64.0745 4.18134 64.4121 4.93267 64.4121 5.88001V11.9233H62.0438V10.4533H61.6518L62.0601 9.88167C62.0601 10.5568 61.8151 11.0958 61.3251 11.4987C60.846 11.8907 60.2035 12.0867 59.3978 12.0867ZM60.3124 10.29C60.7915 10.29 61.1835 10.1648 61.4884 9.91434C61.8042 9.65301 61.9621 9.31545 61.9621 8.90167V7.93801H60.1491C59.7789 7.93801 59.4794 8.0469 59.2508 8.26467C59.0221 8.47156 58.9078 8.74923 58.9078 9.09767C58.9078 9.4679 59.033 9.7619 59.2834 9.97967C59.5339 10.1866 59.8769 10.29 60.3124 10.29ZM71.4127 11.9233C70.7812 11.9233 70.2258 11.7927 69.7467 11.5313C69.2676 11.2591 68.8919 10.8835 68.6197 10.4043C68.3584 9.92523 68.2277 9.3699 68.2277 8.73834V2.20501H65.451V5.73476e-06H70.6777V8.73834C70.6777 9.03234 70.7648 9.2719 70.939 9.45701C71.1242 9.63123 71.3637 9.71834 71.6577 9.71834H74.271V11.9233H71.4127ZM80.798 11.9233C80.1664 11.9233 79.6111 11.7927 79.132 11.5313C78.6529 11.2591 78.2772 10.8835 78.005 10.4043C77.7437 9.92523 77.613 9.3699 77.613 8.73834V2.20501H74.8363V5.73476e-06H80.063V8.73834C80.063 9.03234 80.1501 9.2719 80.3243 9.45701C80.5094 9.63123 80.749 9.71834 81.043 9.71834H83.6563V11.9233H80.798ZM88.7296 12.0867C87.9347 12.0867 87.2378 11.9397 86.639 11.6457C86.051 11.3408 85.5936 10.9216 85.267 10.388C84.9512 9.84356 84.7933 9.21201 84.7933 8.49334V6.37001C84.7933 5.65134 84.9512 5.02523 85.267 4.49167C85.5936 3.94723 86.051 3.52801 86.639 3.23401C87.2378 2.92912 87.9347 2.77667 88.7296 2.77667C89.5245 2.77667 90.2105 2.92912 90.7876 3.23401C91.3756 3.52801 91.8275 3.94723 92.1433 4.49167C92.47 5.02523 92.6333 5.65134 92.6333 6.37001V8.00334H87.129V8.49334C87.129 9.05956 87.2651 9.48967 87.5373 9.78367C87.8095 10.0668 88.2178 10.2083 88.7623 10.2083C89.1434 10.2083 89.4483 10.143 89.677 10.0123C89.9165 9.88167 90.0744 9.70201 90.1506 9.47334H92.5516C92.3556 10.2573 91.9092 10.8889 91.2123 11.368C90.5263 11.8471 89.6987 12.0867 88.7296 12.0867ZM90.2976 6.74567V6.33734C90.2976 5.78201 90.167 5.35734 89.9056 5.06334C89.6552 4.76934 89.2632 4.62234 88.7296 4.62234C88.1961 4.62234 87.7932 4.77478 87.521 5.07967C87.2596 5.38456 87.129 5.81467 87.129 6.37001V6.61501L90.461 6.58234L90.2976 6.74567ZM95.7629 14.8633L96.9879 11.4823L93.6232 2.94001H96.2856L97.6412 6.86001C97.7392 7.15401 97.8372 7.51334 97.9352 7.93801C98.0441 8.35178 98.1258 8.68934 98.1802 8.95067C98.2347 8.68934 98.3109 8.35178 98.4089 7.93801C98.5178 7.51334 98.6212 7.15401 98.7192 6.86001L100.026 2.94001H102.574L98.3272 14.8633H95.7629Z" fill="#0A0A0A"/>
</svg>
