<svg width="104" height="24" viewBox="0 0 104 24" fill="none" xmlns="http://www.w3.org/2000/svg">
    <path d="M3.675 18V8.36333H0.653333V6.07667H9.14667V8.36333H6.125V18H3.675ZM14.2853 18.1633C13.4904 18.1633 12.799 18.0163 12.211 17.7223C11.623 17.4174 11.1656 16.9982 10.839 16.4647C10.5232 15.9202 10.3653 15.2887 10.3653 14.57V12.4467C10.3653 11.728 10.5232 11.1019 10.839 10.5683C11.1656 10.0239 11.623 9.60467 12.211 9.31067C12.799 9.00578 13.4904 8.85333 14.2853 8.85333C15.0911 8.85333 15.7825 9.00578 16.3596 9.31067C16.9476 9.60467 17.3995 10.0239 17.7153 10.5683C18.042 11.1019 18.2053 11.728 18.2053 12.4467V14.57C18.2053 15.2887 18.042 15.9202 17.7153 16.4647C17.3995 16.9982 16.9476 17.4174 16.3596 17.7223C15.7825 18.0163 15.0911 18.1633 14.2853 18.1633ZM14.2853 16.04C14.7644 16.04 15.1292 15.9148 15.3796 15.6643C15.6301 15.403 15.7553 15.0382 15.7553 14.57V12.4467C15.7553 11.9676 15.6301 11.6028 15.3796 11.3523C15.1292 11.1019 14.7644 10.9767 14.2853 10.9767C13.8171 10.9767 13.4523 11.1019 13.191 11.3523C12.9405 11.6028 12.8153 11.9676 12.8153 12.4467V14.57C12.8153 15.0382 12.9405 15.403 13.191 15.6643C13.4523 15.9148 13.8171 16.04 14.2853 16.04ZM19.8976 18V6.07667H22.3476V12.414H23.5562L25.4346 9.01667H28.1622L25.6632 13.4103L28.2112 18H25.4346L23.5399 14.472H22.3476V18H19.8976ZM33.0722 18.1633C32.2773 18.1633 31.5804 18.0163 30.9815 17.7223C30.3935 17.4174 29.9362 16.9982 29.6095 16.4647C29.2937 15.9202 29.1359 15.2887 29.1359 14.57V12.4467C29.1359 11.728 29.2937 11.1019 29.6095 10.5683C29.9362 10.0239 30.3935 9.60467 30.9815 9.31067C31.5804 9.00578 32.2773 8.85333 33.0722 8.85333C33.8671 8.85333 34.5531 9.00578 35.1302 9.31067C35.7182 9.60467 36.1701 10.0239 36.4859 10.5683C36.8125 11.1019 36.9759 11.728 36.9759 12.4467V14.08H31.4715V14.57C31.4715 15.1362 31.6076 15.5663 31.8799 15.8603C32.1521 16.1434 32.5604 16.285 33.1049 16.285C33.486 16.285 33.7909 16.2197 34.0195 16.089C34.2591 15.9583 34.417 15.7787 34.4932 15.55H36.8942C36.6982 16.334 36.2518 16.9656 35.5549 17.4447C34.8689 17.9238 34.0413 18.1633 33.0722 18.1633ZM34.6402 12.8223V12.414C34.6402 11.8587 34.5095 11.434 34.2482 11.14C33.9978 10.846 33.6058 10.699 33.0722 10.699C32.5386 10.699 32.1358 10.8514 31.8635 11.1563C31.6022 11.4612 31.4715 11.8913 31.4715 12.4467V12.6917L34.8035 12.659L34.6402 12.8223ZM38.6191 18V9.01667H40.9875V10.7317H41.7061L40.9875 11.3033C40.9875 10.5411 41.2053 9.94222 41.6408 9.50667C42.0764 9.07111 42.6644 8.85333 43.4048 8.85333C44.2759 8.85333 44.9728 9.15822 45.4955 9.768C46.029 10.3778 46.2958 11.189 46.2958 12.2017V18H43.8458V12.4467C43.8458 11.9784 43.7206 11.6191 43.4701 11.3687C43.2306 11.1073 42.8876 10.9767 42.4411 10.9767C42.0056 10.9767 41.668 11.1073 41.4285 11.3687C41.1889 11.6191 41.0691 11.9784 41.0691 12.4467V18H38.6191ZM50.2911 18L47.3348 6.07667H49.8664L51.5161 13.6063C51.5705 13.8677 51.6359 14.1998 51.7121 14.6027C51.7992 15.0056 51.8645 15.3486 51.9081 15.6317C51.9517 15.3486 52.0061 15.0056 52.0714 14.6027C52.1368 14.1998 52.1967 13.8622 52.2511 13.59L53.8518 6.07667H56.3181L53.3944 18H50.2911ZM60.0521 18.1633C59.1483 18.1633 58.4296 17.9183 57.8961 17.4283C57.3734 16.9383 57.1121 16.2741 57.1121 15.4357C57.1121 14.5319 57.4224 13.8404 58.0431 13.3613C58.6746 12.8713 59.5784 12.6263 60.7544 12.6263H62.6164V11.9567C62.6164 11.6082 62.4912 11.3306 62.2407 11.1237C62.0012 10.9168 61.6745 10.8133 61.2607 10.8133C60.8796 10.8133 60.5638 10.9004 60.3134 11.0747C60.0629 11.2489 59.9105 11.4884 59.8561 11.7933H57.4877C57.5857 10.8896 57.9777 10.1763 58.6637 9.65367C59.3606 9.12011 60.2535 8.85333 61.3424 8.85333C62.4857 8.85333 63.3895 9.13644 64.0537 9.70267C64.7288 10.258 65.0664 11.0093 65.0664 11.9567V18H62.6981V16.53H62.3061L62.7144 15.9583C62.7144 16.6334 62.4694 17.1724 61.9794 17.5753C61.5003 17.9673 60.8578 18.1633 60.0521 18.1633ZM60.9667 16.3667C61.4458 16.3667 61.8378 16.2414 62.1427 15.991C62.4585 15.7297 62.6164 15.3921 62.6164 14.9783V14.0147H60.8034C60.4332 14.0147 60.1337 14.1236 59.9051 14.3413C59.6764 14.5482 59.5621 14.8259 59.5621 15.1743C59.5621 15.5446 59.6873 15.8386 59.9377 16.0563C60.1882 16.2632 60.5312 16.3667 60.9667 16.3667ZM72.067 18C71.4355 18 70.8801 17.8693 70.401 17.608C69.9219 17.3358 69.5462 16.9601 69.274 16.481C69.0127 16.0019 68.882 15.4466 68.882 14.815V8.28167H66.1053V6.07667H71.332V14.815C71.332 15.109 71.4191 15.3486 71.5933 15.5337C71.7785 15.7079 72.018 15.795 72.312 15.795H74.9253V18H72.067ZM81.4523 18C80.8207 18 80.2654 17.8693 79.7863 17.608C79.3072 17.3358 78.9315 16.9601 78.6593 16.481C78.398 16.0019 78.2673 15.4466 78.2673 14.815V8.28167H75.4906V6.07667H80.7173V14.815C80.7173 15.109 80.8044 15.3486 80.9786 15.5337C81.1637 15.7079 81.4033 15.795 81.6973 15.795H84.3106V18H81.4523ZM89.3839 18.1633C88.589 18.1633 87.8921 18.0163 87.2932 17.7223C86.7052 17.4174 86.2479 16.9982 85.9212 16.4647C85.6055 15.9202 85.4476 15.2887 85.4476 14.57V12.4467C85.4476 11.728 85.6055 11.1019 85.9212 10.5683C86.2479 10.0239 86.7052 9.60467 87.2932 9.31067C87.8921 9.00578 88.589 8.85333 89.3839 8.85333C90.1788 8.85333 90.8648 9.00578 91.4419 9.31067C92.0299 9.60467 92.4818 10.0239 92.7976 10.5683C93.1243 11.1019 93.2876 11.728 93.2876 12.4467V14.08H87.7832V14.57C87.7832 15.1362 87.9194 15.5663 88.1916 15.8603C88.4638 16.1434 88.8721 16.285 89.4166 16.285C89.7977 16.285 90.1026 16.2197 90.3313 16.089C90.5708 15.9583 90.7287 15.7787 90.8049 15.55H93.2059C93.0099 16.334 92.5635 16.9656 91.8666 17.4447C91.1806 17.9238 90.353 18.1633 89.3839 18.1633ZM90.9519 12.8223V12.414C90.9519 11.8587 90.8212 11.434 90.5599 11.14C90.3095 10.846 89.9175 10.699 89.3839 10.699C88.8504 10.699 88.4475 10.8514 88.1752 11.1563C87.9139 11.4612 87.7832 11.8913 87.7832 12.4467V12.6917L91.1152 12.659L90.9519 12.8223ZM96.4172 20.94L97.6422 17.559L94.2775 9.01667H96.9399L98.2955 12.9367C98.3935 13.2307 98.4915 13.59 98.5895 14.0147C98.6984 14.4284 98.7801 14.766 98.8345 15.0273C98.889 14.766 98.9652 14.4284 99.0632 14.0147C99.1721 13.59 99.2755 13.2307 99.3735 12.9367L100.68 9.01667H103.228L98.9815 20.94H96.4172Z" fill="#0A0A0A"/>
</svg>
